<?xml version="1.0" encoding="UTF-8"?>
<svg width="800px" height="600px" viewBox="0 0 800 600" version="1.1" xmlns="http://www.w3.org/2000/svg">
    <g id="circuit-logo" fill="none" stroke-width="6">
        <!-- Circuit board paths with gradient color from light blue to dark blue -->
        <path d="M400,200 L400,400" stroke="url(#blueGradient)" stroke-linecap="round"/>
        
        <!-- Left side circuit paths -->
        <path d="M400,250 L300,250 L300,200 L250,200" stroke="url(#blueGradient)" stroke-linecap="round"/>
        <path d="M400,300 L320,300 L320,350 L270,350" stroke="url(#blueGradient)" stroke-linecap="round"/>
        <path d="M400,350 L350,350 L350,400 L300,400" stroke="url(#blueGradient)" stroke-linecap="round"/>
        <path d="M250,300 L300,300" stroke="url(#blueGradient)" stroke-linecap="round"/>
        <path d="M220,250 L270,250" stroke="url(#blueGradient)" stroke-linecap="round"/>
        
        <!-- Right side circuit paths -->
        <path d="M400,230 L450,230 L450,180 L500,180" stroke="url(#blueGradient)" stroke-linecap="round"/>
        <path d="M400,270 L480,270 L480,320 L530,320" stroke="url(#blueGradient)" stroke-linecap="round"/>
        <path d="M400,330 L450,330 L450,370 L500,370" stroke="url(#blueGradient)" stroke-linecap="round"/>
        <path d="M400,380 L430,380 L430,420 L480,420" stroke="url(#blueGradient)" stroke-linecap="round"/>
        
        <!-- Circuit endpoints (circles) -->
        <circle cx="250" cy="200" r="8" fill="#2B9CDE" stroke="none"/>
        <circle cx="270" cy="350" r="8" fill="#2B9CDE" stroke="none"/>
        <circle cx="300" cy="400" r="8" fill="#2B9CDE" stroke="none"/>
        <circle cx="250" cy="300" r="8" fill="#2B9CDE" stroke="none"/>
        <circle cx="220" cy="250" r="8" fill="#2B9CDE" stroke="none"/>
        
        <circle cx="500" cy="180" r="8" fill="#3B5FBF" stroke="none"/>
        <circle cx="530" cy="320" r="8" fill="#3B5FBF" stroke="none"/>
        <circle cx="500" cy="370" r="8" fill="#3B5FBF" stroke="none"/>
        <circle cx="480" cy="420" r="8" fill="#3B5FBF" stroke="none"/>
    </g>
    
    <!-- Define the gradient -->
    <defs>
        <linearGradient id="blueGradient" x1="0%" y1="0%" x2="100%" y2="0%">
            <stop offset="0%" style="stop-color:#2B9CDE;stop-opacity:1" />
            <stop offset="100%" style="stop-color:#333399;stop-opacity:1" />
        </linearGradient>
    </defs>
</svg> 