<?xml version="1.0" encoding="UTF-8"?>
<svg width="64" height="64" viewBox="0 0 64 64" version="1.1" xmlns="http://www.w3.org/2000/svg">
    <g id="circuit-logo" fill="none" stroke-width="2">
        <!-- Circuit board paths with gradient color from light blue to dark blue -->
        <path d="M32,16 L32,48" stroke="url(#blueGradient)" stroke-linecap="round"/>
        
        <!-- Left side circuit paths -->
        <path d="M32,24 L22,24 L22,18 L16,18" stroke="url(#blueGradient)" stroke-linecap="round"/>
        <path d="M32,32 L24,32 L24,38 L18,38" stroke="url(#blueGradient)" stroke-linecap="round"/>
        <path d="M32,40 L26,40 L26,46 L20,46" stroke="url(#blueGradient)" stroke-linecap="round"/>
        <path d="M12,32 L20,32" stroke="url(#blueGradient)" stroke-linecap="round"/>
        <path d="M8,24 L16,24" stroke="url(#blueGradient)" stroke-linecap="round"/>
        
        <!-- Right side circuit paths -->
        <path d="M32,22 L40,22 L40,16 L46,16" stroke="url(#blueGradient)" stroke-linecap="round"/>
        <path d="M32,28 L42,28 L42,34 L48,34" stroke="url(#blueGradient)" stroke-linecap="round"/>
        <path d="M32,36 L38,36 L38,42 L44,42" stroke="url(#blueGradient)" stroke-linecap="round"/>
        <path d="M32,44 L36,44 L36,50 L42,50" stroke="url(#blueGradient)" stroke-linecap="round"/>
        
        <!-- Circuit endpoints (circles) -->
        <circle cx="16" cy="18" r="2.5" fill="#2B9CDE" stroke="none"/>
        <circle cx="18" cy="38" r="2.5" fill="#2B9CDE" stroke="none"/>
        <circle cx="20" cy="46" r="2.5" fill="#2B9CDE" stroke="none"/>
        <circle cx="12" cy="32" r="2.5" fill="#2B9CDE" stroke="none"/>
        <circle cx="8" cy="24" r="2.5" fill="#2B9CDE" stroke="none"/>
        
        <circle cx="46" cy="16" r="2.5" fill="#3B5FBF" stroke="none"/>
        <circle cx="48" cy="34" r="2.5" fill="#3B5FBF" stroke="none"/>
        <circle cx="44" cy="42" r="2.5" fill="#3B5FBF" stroke="none"/>
        <circle cx="42" cy="50" r="2.5" fill="#3B5FBF" stroke="none"/>
    </g>
    
    <!-- Define the gradient -->
    <defs>
        <linearGradient id="blueGradient" x1="0%" y1="0%" x2="100%" y2="0%">
            <stop offset="0%" style="stop-color:#2B9CDE;stop-opacity:1" />
            <stop offset="100%" style="stop-color:#333399;stop-opacity:1" />
        </linearGradient>
    </defs>
</svg> 